<svg width="40" height="40" viewBox="0 0 40 40" fill="none" xmlns="http://www.w3.org/2000/svg">
<mask id="mask0_896_5036" style="mask-type:alpha" maskUnits="userSpaceOnUse" x="12" y="12" width="16" height="21">
<path d="M12.8191 32.5952H27.1808V12.8192H12.8191V32.5952Z" fill="white"/>
</mask>
<g mask="url(#mask0_896_5036)">
<path d="M23.6893 26.1426V31.9654C23.6893 32.3133 23.4074 32.5952 23.0595 32.5952H16.9399C16.592 32.5952 16.3101 32.3133 16.3101 31.9654V26.1426C14.2277 24.8871 12.832 22.6039 12.832 20C12.832 16.0478 16.0474 12.8324 19.9996 12.8324C23.9518 12.8324 27.1671 16.048 27.1671 20C27.1671 22.6037 25.7713 24.887 23.6889 26.1426H23.6893ZM17.5696 31.3358H22.4296V26.7428C21.6704 27.0171 20.8524 27.1675 19.9998 27.1675C19.1471 27.1675 18.3288 27.0171 17.5696 26.7426L17.5696 31.3358ZM19.9996 14.0922C16.7421 14.0922 14.0917 16.7424 14.0917 20.0002C14.0917 23.2577 16.7419 25.9081 19.9996 25.9081C23.2574 25.9081 25.9076 23.2579 25.9076 20.0002C25.9076 16.7424 23.2574 14.0922 19.9996 14.0922Z" fill="#19A68E"/>
</g>
<mask id="mask1_896_5036" style="mask-type:alpha" maskUnits="userSpaceOnUse" x="7" y="19" width="5" height="2">
<path d="M7.40479 20C7.40479 20.3525 7.69056 20.6383 8.04308 20.6383H11.0638C11.4163 20.6383 11.7021 20.3525 11.7021 20C11.7021 19.6475 11.4163 19.3617 11.0638 19.3617H8.04308C7.69056 19.3617 7.40479 19.6475 7.40479 20Z" fill="white"/>
</mask>
<g mask="url(#mask1_896_5036)">
<path d="M11.6871 20C11.6871 20.3478 11.4052 20.6298 11.0573 20.6298H8.03457C7.68675 20.6298 7.40479 20.3478 7.40479 20C7.40479 19.6522 7.68674 19.3702 8.03457 19.3702H11.0573C11.4054 19.3702 11.6871 19.652 11.6871 20Z" fill="#19A68E"/>
</g>
<mask id="mask2_896_5036" style="mask-type:alpha" maskUnits="userSpaceOnUse" x="28" y="19" width="5" height="2">
<path d="M28.2979 20.6383H32.5954V19.3617H28.2979V20.6383Z" fill="white"/>
</mask>
<g mask="url(#mask2_896_5036)">
<path d="M31.9653 20.6298H28.9425C28.5947 20.6298 28.3127 20.3478 28.3127 20C28.3127 19.6522 28.5947 19.3702 28.9425 19.3702H31.9653C32.3131 19.3702 32.5951 19.6522 32.5951 20C32.5951 20.3478 32.3131 20.6298 31.9653 20.6298Z" fill="#19A68E"/>
</g>
<mask id="mask3_896_5036" style="mask-type:alpha" maskUnits="userSpaceOnUse" x="19" y="7" width="2" height="5">
<path d="M19.3618 11.7021H20.6384V7.40462H19.3618V11.7021Z" fill="white"/>
</mask>
<g mask="url(#mask3_896_5036)">
<path d="M20.0001 11.6872C19.6523 11.6872 19.3704 11.4053 19.3704 11.0574V8.03467C19.3704 7.68685 19.6523 7.40488 20.0001 7.40488C20.348 7.40488 20.6299 7.68684 20.6299 8.03467V11.0574C20.6299 11.4053 20.3482 11.6872 20.0001 11.6872Z" fill="#19A68E"/>
</g>
<path d="M13.2314 25.8777C13.3544 25.7547 13.5156 25.6934 13.6766 25.6934C13.8379 25.6934 13.9991 25.7549 14.1219 25.8777C14.3679 26.1235 14.3679 26.5222 14.1219 26.7682L11.9845 28.9056C11.7387 29.1517 11.3395 29.1517 11.0939 28.9056C10.8479 28.6598 10.8479 28.2611 11.0939 28.0151L13.2314 25.8777Z" fill="#19A68E"/>
<path d="M26.7686 14.1218C26.5226 14.3678 26.124 14.3678 25.878 14.1218C25.6322 13.8758 25.632 13.4773 25.878 13.2313L28.0155 11.0938C28.1385 10.9708 28.2997 10.9095 28.4608 10.9095C28.622 10.9095 28.783 10.971 28.906 11.0938C29.152 11.3398 29.152 11.7383 28.906 11.9844L26.7686 14.1218Z" fill="#19A68E"/>
<path d="M26.3234 25.6936C26.4846 25.6936 26.6456 25.7551 26.7686 25.8779L28.9061 28.0154C29.1521 28.2612 29.1521 28.6599 28.9061 28.9059C28.6601 29.1519 28.2616 29.1519 28.0156 28.9059L25.8781 26.7684C25.6321 26.5226 25.6321 26.1239 25.8781 25.8779C26.0011 25.7549 26.1624 25.6936 26.3234 25.6936H26.3234Z" fill="#19A68E"/>
<path d="M13.2314 14.1218C13.2314 14.1218 13.2314 14.1218 13.2314 14.1218L11.0939 11.9843C10.8479 11.7383 10.8479 11.3398 11.0939 11.0938C11.2169 10.9708 11.3782 10.9095 11.5392 10.9095C11.7004 10.9095 11.8617 10.971 11.9845 11.0938L14.1219 13.2313C14.3679 13.4773 14.3679 13.8758 14.1219 14.1218C13.8763 14.368 13.4772 14.368 13.2314 14.1218C13.2314 14.1218 13.2314 14.1218 13.2314 14.1218Z" fill="#19A68E"/>
</svg>
